<svg
    xmlns="http://www.w3.org/2000/svg" width="250"
    viewBox="0 0 512 512" >
    <circle cx="344" cy="168" r="146" fill="#f8d4d0" stroke="#f88" stroke-width="5" />
    <circle cx="344" cy="168" r="128" fill="#f8f8" stroke="#f88" stroke-width="15" />
    <g transform="translate(0.000000,512.000000) scale(0.100000,-0.100000)" fill="#000000" stroke="none">
        <path stroke="#f88" stroke-width="16"
            d="M3257 5110 c-582 -73 -1070 -418 -1323 -935 -283 -579 -210 -1257 192 -1771 l76 -97 -153 -153 c-135 -135 -155 -152 -169 -139 -30 27 -105 55 -150 55 -108 0 -62 41 -898 -793 -868 -867 -827 -820 -827 -962 0 -60 6 -91 22 -126 30 -66 86 -124 151 -156 48 -24 70 -28 137 -28 142 0 95 -40 962 827 834 836 793 790 793 898 0 45 -28 120 -55 150 -13 14 4 34 139 169 l153 153 101 -79 c769 -599 1865 -429 2420 375 197 286 305 664 289 1012 -21 438 -186 811 -497 1120 -247 247 -550 404 -895 466 -105 18 -370 26 -468 14z m475 -169 c774 -155 1308 -870 1228 -1646 -38 -372 -194 -692 -464 -952 -260 -251 -582 -395 -943 -422 -838 -63 -1570 567 -1632 1405 -33 438 117 853 423 1171 244 255 544 408 895 459 126 18 363 11 493 -15z m-1891 -3100 c71 -70 79 -83 79 -116 0 -33 -9 -46 -75 -114 l-74 -76 -118 118 -118 118 76 74 c68 66 81 75 114 75 33 0 46 -8 116 -79z"
            fill="#736572" />
        <path
            d="M3310 4794 c-237 -30 -422 -96 -605 -215 -101 -65 -125 -89 -125 -127 0 -30 43 -72 74 -72 14 0 61 25 106 55 101 69 170 104 282 143 308 109 636 89 933 -58 250 -123 422 -295 545 -545 147 -297 167 -625 58 -933 -39 -112 -74 -181 -143 -282 -61 -90 -67 -119 -30 -155 48 -49 87 -31 153 68 109 162 174 313 213 497 18 84 23 139 23 270 1 177 -12 261 -60 415 -149 470 -550 826 -1037 920 -81 16 -319 27 -387 19z"
            fill="#00265a" />
        <path
            d="M2389 4290 c-25 -15 -112 -147 -162 -245 -94 -189 -140 -387 -139 -605 0 -356 128 -677 370 -931 262 -276 601 -421 982 -420 226 0 417 44 612 142 97 48 225 134 239 160 15 29 10 68 -11 89 -32 32 -74 25 -143 -24 -131 -93 -323 -173 -485 -201 -112 -20 -318 -19 -423 1 -505 96 -877 468 -973 973 -20 105 -21 311 -1 422 28 166 96 330 196 477 54 80 62 119 29 152 -21 21 -64 26 -91 10z"
            fill="#00265a" />
        <path
            d="M2836 3899 c-19 -15 -26 -30 -26 -56 0 -29 10 -45 62 -99 l62 -65 -62 -62 c-69 -70 -80 -109 -42 -147 37 -37 75 -27 146 42 l64 61 64 -61 c70 -68 104 -78 147 -44 42 35 31 74 -42 148 l-63 64 63 64 c52 53 64 71 64 97 0 36 -40 79 -75 79 -11 0 -50 -29 -89 -67 l-69 -66 -69 66 c-38 37 -78 67 -89 67 -10 0 -31 -9 -46 -21z"
            fill="#00265a" />
        <path
            d="M3636 3899 c-19 -15 -26 -30 -26 -56 0 -29 10 -45 62 -99 l61 -64 -61 -64 c-69 -71 -79 -109 -42 -146 38 -38 77 -27 147 42 l62 62 65 -63 c59 -56 69 -62 102 -59 47 4 80 43 70 84 -4 15 -34 55 -66 89 l-59 61 59 59 c33 33 63 68 66 78 13 42 -34 97 -82 97 -9 0 -46 -29 -83 -65 l-67 -65 -50 51 c-49 51 -91 79 -117 79 -8 0 -26 -9 -41 -21z"
            fill="#00265a" />
        <path
            d="M3355 3110 c-125 -17 -250 -73 -338 -151 -39 -33 -47 -47 -47 -75 0 -80 73 -97 148 -35 189 157 472 153 660 -10 44 -38 92 -39 121 -3 32 41 26 63 -32 120 -119 114 -332 179 -512 154z"
            fill="#00265a" />
        <line x1="180" y1="340" x2="1400" y2="1566" stroke="#fff" stroke-width="60" stroke-linecap="round" />
        <line x1="300" y1="160" x2="1600" y2="1400" stroke="#fff" stroke-width="60" stroke-linecap="round" />
    </g>
</svg>